<mxfile host="app.diagrams.net" modified="2023-02-21T05:20:25.562Z" agent="5.0 (Windows NT 10.0; Win64; x64) AppleWebKit/537.36 (KHTML, like Gecko) Chrome/110.0.0.0 Safari/537.36" etag="UcwkDsFiVK7X2FDbk4rA" version="20.8.21" type="github">
  <diagram name="Page-1" id="2a216829-ef6e-dabb-86c1-c78162f3ba2b">
    <mxGraphModel dx="1434" dy="764" grid="1" gridSize="10" guides="1" tooltips="1" connect="1" arrows="1" fold="1" page="1" pageScale="1" pageWidth="850" pageHeight="1100" background="none" math="0" shadow="0">
      <root>
        <mxCell id="0" />
        <mxCell id="1" parent="0" />
        <mxCell id="NamIJaM11Jgx6GeulGSa-57" value="Assets" style="childLayout=tableLayout;recursiveResize=0;strokeColor=#D4E1F5;fillColor=#7EA6E0;shadow=1;strokeWidth=1;gradientColor=none;" vertex="1" parent="1">
          <mxGeometry x="60" y="330" width="200" height="190" as="geometry" />
        </mxCell>
        <mxCell id="NamIJaM11Jgx6GeulGSa-58" style="shape=tableRow;horizontal=0;startSize=0;swimlaneHead=0;swimlaneBody=0;top=0;left=0;bottom=0;right=0;dropTarget=0;collapsible=0;recursiveResize=0;expand=0;fontStyle=0;strokeColor=#D4E1F5;fillColor=#ffffff;strokeWidth=1;" vertex="1" parent="NamIJaM11Jgx6GeulGSa-57">
          <mxGeometry width="200" height="47" as="geometry" />
        </mxCell>
        <mxCell id="NamIJaM11Jgx6GeulGSa-59" value="번호" style="connectable=0;recursiveResize=0;strokeColor=#D4E1F5;fillColor=#7EA6E0;align=center;fontStyle=1;fontColor=#FFFFFF;html=1;strokeWidth=1;fillStyle=auto;" vertex="1" parent="NamIJaM11Jgx6GeulGSa-58">
          <mxGeometry width="99" height="47" as="geometry">
            <mxRectangle width="99" height="47" as="alternateBounds" />
          </mxGeometry>
        </mxCell>
        <mxCell id="NamIJaM11Jgx6GeulGSa-60" value="루틴" style="connectable=0;recursiveResize=0;strokeColor=#D4E1F5;fillColor=#7EA6E0;align=center;fontStyle=1;fontColor=#FFFFFF;html=1;strokeWidth=1;" vertex="1" parent="NamIJaM11Jgx6GeulGSa-58">
          <mxGeometry x="99" width="101" height="47" as="geometry">
            <mxRectangle width="101" height="47" as="alternateBounds" />
          </mxGeometry>
        </mxCell>
        <mxCell id="NamIJaM11Jgx6GeulGSa-62" value="" style="shape=tableRow;horizontal=0;startSize=0;swimlaneHead=0;swimlaneBody=0;top=0;left=0;bottom=0;right=0;dropTarget=0;collapsible=0;recursiveResize=0;expand=0;fontStyle=0;strokeColor=#D4E1F5;fillColor=#ffffff;strokeWidth=1;" vertex="1" parent="NamIJaM11Jgx6GeulGSa-57">
          <mxGeometry y="47" width="200" height="52" as="geometry" />
        </mxCell>
        <mxCell id="NamIJaM11Jgx6GeulGSa-63" value="1" style="connectable=0;recursiveResize=0;strokeColor=#D4E1F5;fillColor=inherit;align=center;whiteSpace=wrap;html=1;strokeWidth=1;" vertex="1" parent="NamIJaM11Jgx6GeulGSa-62">
          <mxGeometry width="99" height="52" as="geometry">
            <mxRectangle width="99" height="52" as="alternateBounds" />
          </mxGeometry>
        </mxCell>
        <mxCell id="NamIJaM11Jgx6GeulGSa-64" value="강의" style="connectable=0;recursiveResize=0;strokeColor=#D4E1F5;fillColor=inherit;align=center;whiteSpace=wrap;html=1;strokeWidth=1;" vertex="1" parent="NamIJaM11Jgx6GeulGSa-62">
          <mxGeometry x="99" width="101" height="52" as="geometry">
            <mxRectangle width="101" height="52" as="alternateBounds" />
          </mxGeometry>
        </mxCell>
        <mxCell id="NamIJaM11Jgx6GeulGSa-66" value="" style="shape=tableRow;horizontal=0;startSize=0;swimlaneHead=0;swimlaneBody=0;top=0;left=0;bottom=0;right=0;dropTarget=0;collapsible=0;recursiveResize=0;expand=0;fontStyle=1;strokeColor=#D4E1F5;fillColor=#EAF2D3;strokeWidth=1;" vertex="1" parent="NamIJaM11Jgx6GeulGSa-57">
          <mxGeometry y="99" width="200" height="44" as="geometry" />
        </mxCell>
        <mxCell id="NamIJaM11Jgx6GeulGSa-67" value="2" style="connectable=0;recursiveResize=0;strokeColor=#D4E1F5;fillColor=#dae8fc;whiteSpace=wrap;html=1;strokeWidth=1;" vertex="1" parent="NamIJaM11Jgx6GeulGSa-66">
          <mxGeometry width="99" height="44" as="geometry">
            <mxRectangle width="99" height="44" as="alternateBounds" />
          </mxGeometry>
        </mxCell>
        <mxCell id="NamIJaM11Jgx6GeulGSa-68" value="과제" style="connectable=0;recursiveResize=0;strokeColor=#D4E1F5;fillColor=#dae8fc;whiteSpace=wrap;html=1;strokeWidth=1;" vertex="1" parent="NamIJaM11Jgx6GeulGSa-66">
          <mxGeometry x="99" width="101" height="44" as="geometry">
            <mxRectangle width="101" height="44" as="alternateBounds" />
          </mxGeometry>
        </mxCell>
        <mxCell id="NamIJaM11Jgx6GeulGSa-70" value="" style="shape=tableRow;horizontal=0;startSize=0;swimlaneHead=0;swimlaneBody=0;top=0;left=0;bottom=0;right=0;dropTarget=0;collapsible=0;recursiveResize=0;expand=0;fontStyle=0;strokeColor=#D4E1F5;fillColor=#ffffff;strokeWidth=1;" vertex="1" parent="NamIJaM11Jgx6GeulGSa-57">
          <mxGeometry y="143" width="200" height="47" as="geometry" />
        </mxCell>
        <mxCell id="NamIJaM11Jgx6GeulGSa-71" value="3" style="connectable=0;recursiveResize=0;strokeColor=#D4E1F5;fillColor=inherit;fontStyle=0;align=center;whiteSpace=wrap;html=1;strokeWidth=1;" vertex="1" parent="NamIJaM11Jgx6GeulGSa-70">
          <mxGeometry width="99" height="47" as="geometry">
            <mxRectangle width="99" height="47" as="alternateBounds" />
          </mxGeometry>
        </mxCell>
        <mxCell id="NamIJaM11Jgx6GeulGSa-72" value="설문" style="connectable=0;recursiveResize=0;strokeColor=#D4E1F5;fillColor=inherit;fontStyle=0;align=center;whiteSpace=wrap;html=1;strokeWidth=1;" vertex="1" parent="NamIJaM11Jgx6GeulGSa-70">
          <mxGeometry x="99" width="101" height="47" as="geometry">
            <mxRectangle width="101" height="47" as="alternateBounds" />
          </mxGeometry>
        </mxCell>
      </root>
    </mxGraphModel>
  </diagram>
</mxfile>
